<svg width="192" height="142" viewBox="0 0 192 142" fill="none" xmlns="http://www.w3.org/2000/svg">
<path d="M191 141H1V121H15.6152V101H30.2305V81H44.8467V61H59.4619V41H74.0771V21H88.6924V1H103.308V21H117.923V41H132.539V61H147.154V81H161.769V101H176.385V121H191V141Z" fill="#FF0000"/>
<path d="M191 141V142H192V141H191ZM1 141H0V142H1V141ZM1 121V120H0V121H1ZM15.6152 121V122H16.6152V121H15.6152ZM15.6152 101V100H14.6152V101H15.6152ZM30.2305 101V102H31.2305V101H30.2305ZM30.2305 81V80H29.2305V81H30.2305ZM44.8467 81V82H45.8467V81H44.8467ZM44.8467 61V60H43.8467V61H44.8467ZM59.4619 61V62H60.4619V61H59.4619ZM59.4619 41V40H58.4619V41H59.4619ZM74.0771 41V42H75.0771V41H74.0771ZM74.0771 21V20H73.0771V21H74.0771ZM88.6924 21V22H89.6924V21H88.6924ZM88.6924 1V0H87.6924V1H88.6924ZM103.308 1H104.308V0H103.308V1ZM103.308 21H102.308V22H103.308V21ZM117.923 21H118.923V20H117.923V21ZM117.923 41H116.923V42H117.923V41ZM132.539 41H133.539V40H132.539V41ZM132.539 61H131.539V62H132.539V61ZM147.154 61H148.154V60H147.154V61ZM147.154 81H146.154V82H147.154V81ZM161.769 81H162.769V80H161.769V81ZM161.769 101H160.769V102H161.769V101ZM176.385 101H177.385V100H176.385V101ZM176.385 121H175.385V122H176.385V121ZM191 121H192V120H191V121ZM191 141V140H1V141V142H191V141ZM1 141H2V121H1H0V141H1ZM1 121V122H15.6152V121V120H1V121ZM15.6152 121H16.6152V101H15.6152H14.6152V121H15.6152ZM15.6152 101V102H30.2305V101V100H15.6152V101ZM30.2305 101H31.2305V81H30.2305H29.2305V101H30.2305ZM30.2305 81V82H44.8467V81V80H30.2305V81ZM44.8467 81H45.8467V61H44.8467H43.8467V81H44.8467ZM44.8467 61V62H59.4619V61V60H44.8467V61ZM59.4619 61H60.4619V41H59.4619H58.4619V61H59.4619ZM59.4619 41V42H74.0771V41V40H59.4619V41ZM74.0771 41H75.0771V21H74.0771H73.0771V41H74.0771ZM74.0771 21V22H88.6924V21V20H74.0771V21ZM88.6924 21H89.6924V1H88.6924H87.6924V21H88.6924ZM88.6924 1V2H103.308V1V0H88.6924V1ZM103.308 1H102.308V21H103.308H104.308V1H103.308ZM103.308 21V22H117.923V21V20H103.308V21ZM117.923 21H116.923V41H117.923H118.923V21H117.923ZM117.923 41V42H132.539V41V40H117.923V41ZM132.539 41H131.539V61H132.539H133.539V41H132.539ZM132.539 61V62H147.154V61V60H132.539V61ZM147.154 61H146.154V81H147.154H148.154V61H147.154ZM147.154 81V82H161.769V81V80H147.154V81ZM161.769 81H160.769V101H161.769H162.769V81H161.769ZM161.769 101V102H176.385V101V100H161.769V101ZM176.385 101H175.385V121H176.385H177.385V101H176.385ZM176.385 121V122H191V121V120H176.385V121ZM191 121H190V141H191H192V121H191Z" fill="#FFB200"/>
<path d="M48.728 115V93.4H57.44C61.04 93.4 63.92 96.064 63.92 99.448C63.92 101.464 63.092 102.724 61.58 103.876V103.948C63.812 105.532 64.748 107.044 64.748 109.276C64.748 112.264 62.372 115 58.268 115H48.728ZM50.06 113.992H52.652V94.408H50.06V113.992ZM53.984 102.004H56.504C57.728 102.004 58.592 101.176 58.592 99.988C58.592 98.872 57.728 98.008 56.504 98.008H53.984V102.004ZM53.984 110.284H57.188C58.412 110.284 59.204 109.564 59.204 108.412C59.204 107.368 58.412 106.504 57.188 106.504H53.984V110.284ZM67.1549 104.2C67.1549 97.756 71.9429 92.68 78.7829 92.68C85.5869 92.68 90.4109 97.756 90.4109 104.2C90.4109 110.644 85.5869 115.72 78.7829 115.72C71.9429 115.72 67.1549 110.644 67.1549 104.2ZM72.5189 104.2C72.5189 107.836 74.9309 110.716 78.7829 110.716C82.5989 110.716 85.0469 107.836 85.0469 104.2C85.0469 100.564 82.5989 97.684 78.7829 97.684C74.9309 97.684 72.5189 100.564 72.5189 104.2ZM68.7029 106.468C69.6389 111.22 73.5629 114.64 78.7829 114.64C83.9669 114.64 87.8909 111.184 88.8629 106.468H86.0909C85.2269 109.6 82.5629 111.832 78.7829 111.832C75.0029 111.832 72.3389 109.564 71.4749 106.468H68.7029ZM94.6471 104.2C94.6471 97.756 99.4351 92.68 106.275 92.68C113.079 92.68 117.903 97.756 117.903 104.2C117.903 110.644 113.079 115.72 106.275 115.72C99.4351 115.72 94.6471 110.644 94.6471 104.2ZM100.011 104.2C100.011 107.836 102.423 110.716 106.275 110.716C110.091 110.716 112.539 107.836 112.539 104.2C112.539 100.564 110.091 97.684 106.275 97.684C102.423 97.684 100.011 100.564 100.011 104.2ZM96.1951 106.468C97.1311 111.22 101.055 114.64 106.275 114.64C111.459 114.64 115.383 111.184 116.355 106.468H113.583C112.719 109.6 110.055 111.832 106.275 111.832C102.495 111.832 99.8311 109.564 98.9671 106.468H96.1951ZM121.572 115V93.4H126.504L132.012 105.064L137.556 93.4H142.416V115H137.16V105.388L132.444 115.72H131.58L126.864 105.316V115H121.572ZM122.904 113.992H125.532V102.184L122.904 96.28V113.992ZM133.956 109.384L137.16 102.58V97.108L132.768 106.504L133.956 109.384Z" fill="#FFB200"/>
</svg>
