<svg width="195" height="196" viewBox="0 0 195 196" fill="none" xmlns="http://www.w3.org/2000/svg">
<path d="M0.0520377 61.052L0.0520404 0.94796L194.506 195.402H134.402L0.0520377 61.052Z" fill="#FFB200"/>
<path d="M45.0332 86.7317L56.0641 75.7008L59.9065 79.5433C63.1606 82.7974 63.2893 87.7061 60.1823 90.8131C57.2407 93.7547 52.4055 94.104 48.8756 90.5741L45.0332 86.7317ZM46.2282 86.8972L47.5703 88.2393L57.5716 78.2379L56.2296 76.8959L46.2282 86.8972ZM50.1993 86.9707L51.2841 88.0554C53.0122 89.7836 55.5493 89.8939 57.4062 88.037C59.116 86.3272 59.2998 83.8269 57.4062 81.9333L56.3215 80.8486L50.1993 86.9707ZM56.4878 98.1863L67.5187 87.1554L70.2212 89.858L59.1904 100.889L56.4878 98.1863ZM57.6828 98.3518L59.0249 99.6938L62.9592 95.7595L61.6172 94.4174L57.6828 98.3518ZM64.1389 99.3659L66.7679 101.995C66.1244 102.638 66.1244 103.668 66.7495 104.293C67.4298 104.973 68.2387 105.01 68.8086 104.44C69.6359 103.613 68.7902 102.289 68.2019 101.076C67.0069 98.557 66.8414 96.6634 68.7351 94.7697C70.6839 92.821 73.9747 92.8761 76.0522 94.9536C78.4974 97.3988 78.0929 100.12 76.1993 102.307L73.6622 99.7704C74.2873 99.1453 74.416 98.2445 73.6622 97.4907C73.0739 96.9024 72.1547 96.6818 71.4376 97.3988C70.6103 98.2261 71.4744 99.3843 72.1363 100.598C73.5151 103.153 73.3313 105.176 71.6031 106.904C69.6543 108.852 66.3818 108.816 64.3044 106.738C61.8959 104.33 62.1533 101.351 64.1389 99.3659ZM74.6734 99.752L76.0522 101.131C77.0266 99.9359 77.7069 97.6378 75.5558 95.4867L74.1218 96.9208C75.2617 98.0606 74.9675 99.1269 74.6734 99.752ZM64.2676 100.524C62.9255 101.94 63.0726 104.477 64.8191 106.223L66.2348 104.808C65.3155 103.852 65.2604 102.73 65.7016 101.958L64.2676 100.524ZM71.9918 113.69L80.6326 105.049L78.1691 102.586L80.5591 100.196L88.2439 107.881L85.8539 110.271L83.3536 107.77L74.7127 116.411L71.9918 113.69ZM73.15 113.819L74.5656 115.235L82.6917 107.109L81.2761 105.693L73.15 113.819ZM83.353 114.021C86.6439 110.73 91.6813 110.583 95.1744 114.076C98.6491 117.55 98.5204 122.606 95.2296 125.897C91.9387 129.188 86.8829 129.317 83.4081 125.842C79.915 122.349 80.0621 117.311 83.353 114.021ZM86.0923 116.76C84.2355 118.617 83.9965 121.319 85.9636 123.287C87.9124 125.235 90.6334 125.015 92.4902 123.158C94.3471 121.301 94.5677 118.58 92.6189 116.631C90.6517 114.664 87.9492 114.903 86.0923 116.76ZM82.9853 115.969C81.0365 118.874 81.2939 122.625 83.9597 125.29C86.6071 127.938 90.376 128.177 93.2808 126.265L91.8651 124.849C89.8244 126.007 87.3241 125.787 85.3937 123.856C83.4633 121.926 83.2611 119.407 84.4009 117.385L82.9853 115.969ZM91.5876 133.286L102.619 122.255L107.233 126.87C109.494 129.131 109.145 132.128 107.288 133.985C105.229 136.044 102.214 135.97 100.173 133.93L98.2429 131.999L94.2718 135.97L91.5876 133.286ZM92.7827 133.452L94.1064 134.775L104.108 124.774L102.784 123.45L92.7827 133.452ZM100.559 129.683L102.232 131.356C102.931 132.054 103.961 131.797 104.604 131.153C105.211 130.547 105.395 129.628 104.678 128.911L103.005 127.238L100.559 129.683ZM101.516 143.215L112.547 132.184L115.25 134.886L104.219 145.917L101.516 143.215ZM102.711 143.38L104.053 144.722L107.988 140.788L106.645 139.446L102.711 143.38ZM105.398 147.097L122.165 141.067L122.643 141.545L116.65 158.348L113.745 155.444L114.333 153.752L109.976 149.395L108.303 150.002L105.398 147.097ZM112.752 148.31L115.345 150.902L116.87 146.839L116.834 146.803L112.752 148.31ZM116.08 151.638L114.701 155.37L116.227 156.896L117.569 153.127L116.08 151.638ZM106.832 147.501L108.34 149.009L112.09 147.648L110.601 146.159L106.832 147.501Z" fill="black"/>
</svg>
