<svg width="50" height="190" viewBox="0 0 50 190" fill="none" xmlns="http://www.w3.org/2000/svg">
<rect width="50" height="190" fill="white"/>
<path d="M28.424 172.83L28.424 169.112C29.334 169.112 30.062 168.384 30.062 167.5C30.062 166.538 29.516 165.94 28.71 165.94C27.54 165.94 27.202 167.474 26.76 168.748C25.824 171.374 24.602 172.83 21.924 172.83C19.168 172.83 16.88 170.464 16.88 167.526C16.88 164.068 19.09 162.43 21.976 162.222L21.976 165.81C21.092 165.81 20.364 166.356 20.364 167.422C20.364 168.254 20.858 169.06 21.872 169.06C23.042 169.06 23.25 167.63 23.64 166.304C24.472 163.522 26.032 162.222 28.476 162.222C31.232 162.222 33.52 164.562 33.52 167.5C33.52 170.906 31.232 172.83 28.424 172.83ZM21.248 165.108L21.248 163.158C19.714 163.314 17.608 164.458 17.608 167.5L19.636 167.5C19.636 165.888 20.598 165.342 21.248 165.108ZM29.152 171.92C31.102 171.868 32.792 169.97 32.792 167.5L30.79 167.5C30.764 168.826 30.01 169.658 29.152 169.892L29.152 171.92ZM25.2 159.494C20.546 159.494 16.88 156.036 16.88 151.096C16.88 146.182 20.546 142.698 25.2 142.698C29.854 142.698 33.52 146.182 33.52 151.096C33.52 156.036 29.854 159.494 25.2 159.494ZM25.2 155.62C27.826 155.62 29.906 153.878 29.906 151.096C29.906 148.34 27.826 146.572 25.2 146.572C22.574 146.572 20.494 148.34 20.494 151.096C20.494 153.878 22.574 155.62 25.2 155.62ZM26.838 158.376C30.27 157.7 32.74 154.866 32.74 151.096C32.74 147.352 30.244 144.518 26.838 143.816L26.838 145.818C29.1 146.442 30.712 148.366 30.712 151.096C30.712 153.826 29.074 155.75 26.838 156.374L26.838 158.376ZM27.748 140.049L17.4 140.049L17.4 136.253L27.176 136.253C29.256 136.253 29.984 135.265 29.984 133.939C29.984 132.483 29.256 131.573 27.176 131.573L17.4 131.573L17.4 127.751L27.748 127.751C31.44 127.751 33.52 130.507 33.52 133.939C33.52 137.501 31.336 140.049 27.748 140.049ZM23.666 130.637L23.666 128.713L18.128 128.713L18.128 130.637L23.666 130.637ZM23.666 139.087L23.666 137.189L18.128 137.189L18.128 139.087L23.666 139.087ZM33 125.246L17.4 125.246L17.4 121.216L26.656 115.158L17.4 115.158L17.4 111.362L33 111.362L33 115.34L23.718 121.424L33 121.424L33 125.246ZM27.618 114.196L30.53 112.324L18.128 112.324L18.128 114.196L27.618 114.196ZM32.272 124.284L32.272 122.386L22.756 122.386L19.766 124.284L32.272 124.284ZM33 108.869L17.4 108.869L17.4 103.435C17.4 98.8332 20.78 95.2712 25.174 95.2712C29.334 95.2712 33 98.4432 33 103.435L33 108.869ZM32.272 107.907L32.272 106.009L18.128 106.009L18.128 107.907L32.272 107.907ZM29.516 105.047L29.516 103.513C29.516 101.069 27.8 99.1972 25.174 99.1972C22.756 99.1972 20.858 100.835 20.858 103.513L20.858 105.047L29.516 105.047ZM33 84.3026L20.78 84.3026L20.78 87.7866L17.4 87.7866L17.4 76.9186L20.78 76.9186L20.78 80.4546L33 80.4546L33 84.3026ZM32.272 83.3926L32.272 81.3906L20.78 81.3906L20.78 83.3926L32.272 83.3926ZM33 75.1504L17.4 75.1504L17.4 68.6244C17.4 65.2704 19.428 63.0864 22.366 63.0864C25.096 63.0864 26.63 64.4644 27.202 66.7784L33 62.5664L33 67.3504L27.176 71.3284L33 71.3284L33 75.1504ZM32.272 74.1884L32.272 72.2904L18.128 72.2904L18.128 74.1884L32.272 74.1884ZM24.16 71.3284L24.16 68.2604C24.16 67.4024 23.276 66.8304 22.366 66.8304C21.456 66.8304 20.65 67.5064 20.65 68.3644L20.65 71.3284L24.16 71.3284ZM33 62.043L16.88 54.451L16.88 53.775L33 46.131L33 50.239L31.388 51.019L31.388 57.181L33 57.935L33 62.043ZM28.658 55.985L28.658 52.319L24.706 54.113L24.706 54.165L28.658 55.985ZM28.658 51.279L32.272 49.615L32.272 47.457L28.658 49.173L28.658 51.279ZM32.272 60.743L32.272 58.611L28.658 56.921L28.658 59.027L32.272 60.743ZM25.2 46.6585C20.546 46.6585 16.88 43.1485 16.88 38.2085C16.88 35.2445 17.998 33.1905 19.74 31.5265L22.236 34.1525C21.17 35.2445 20.494 36.6485 20.494 38.2085C20.494 40.9905 22.574 42.7845 25.2 42.7845C27.826 42.7845 29.906 40.9905 29.906 38.2085C29.906 36.6485 29.23 35.2445 28.164 34.1525L30.66 31.6045C32.298 33.1645 33.52 35.3225 33.52 38.2085C33.52 43.1485 29.854 46.6585 25.2 46.6585ZM19.766 38.2085C19.766 36.7265 20.312 35.2965 21.17 34.1785L19.74 32.6965C18.336 34.0745 17.608 35.8685 17.608 38.2085L19.766 38.2085ZM32.792 38.2085C32.792 35.9205 32.064 34.2045 30.712 32.7485L29.204 34.2305C30.036 35.1665 30.634 36.6485 30.634 38.2085L32.792 38.2085ZM33 29.6758L17.4 29.6758L17.4 25.8538L24.368 25.8538L24.368 25.8018L17.4 21.3038L17.4 17.0918L24.81 22.4478L33 16.8058L33 21.0178L25.434 25.8018L25.434 25.8538L33 25.8538L33 29.6758ZM32.272 28.7138L32.272 26.8158L18.128 26.8158L18.128 28.7138L32.272 28.7138Z" fill="black"/>
</svg>
